<?xml version="1.0" encoding="UTF-8" standalone="no"?>
<svg
   version="1.0"
   width="381.000000pt"
   height="381.000000pt"
   viewBox="0 0 381.000000 381.000000"
   preserveAspectRatio="xMidYMid meet"
   id="svg157"
   xmlns="http://www.w3.org/2000/svg"
   xmlns:svg="http://www.w3.org/2000/svg">
  <defs
     id="defs161" />
  <metadata
     id="metadata151">
Created by potrace 1.14, written by Peter Selinger 2001-2017
</metadata>
  <g
     transform="translate(0.000000,381.000000) scale(0.100000,-0.100000)"
     fill="#000000"
     stroke="none"
     id="g155">
    <path
       d="M1104 3751 c-203 -108 -349 -217 -509 -382 -235 -243 -382 -491 -479 -810 -118 -391 -110 -804 25 -1196 199 -579 667 -1042 1245 -1232 398 -131 804 -131 1199 0 507 168 921 531 1156 1014 32 67 59 125 59 129 0 4 -26 -26 -59 -66 -288 -358 -725 -594 -1201 -649 -130 -15 -401 -7 -525 16 -751 134 -1334 717 -1471 1470 -23 126 -26 499 -6 615 58 321 168 577 356 825 63 84 203 230 271 283 22 18 37 32 35 32 -3 0 -46 -22 -96 -49z"
       id="path153" />
  </g>
  <path
     style="fill:#227396;stroke:none;stroke-width:0.596945;fill-opacity:1"
     d="M 249.82139,502.8633 C 205.06465,500.05829 160.10144,484.82532 122.6949,459.79444 35.997119,401.77992 -8.6508669,299.60183 8.3873417,198.19859 13.042232,170.49492 24.705175,137.47136 38.298467,113.50541 57.6631,79.364165 89.724596,44.797379 122.07521,23.182341 131.4558,16.914702 156.18715,2.8718372 156.78747,3.4721522 c 0.12802,0.128025 -2.22737,2.3537383 -5.2342,4.9460295 C 145.00851,14.060637 131.21211,28.24523 124.61429,36.115159 110.65706,52.763428 97.032549,75.108546 88.12944,95.952777 79.454609,116.26255 71.907203,144.86008 70.45997,162.90337 c -0.794951,9.91097 -0.794701,40.14964 4.42e-4,53.8706 0.749082,12.92605 2.128371,21.86463 5.357967,34.72268 21.372939,85.09255 86.510201,151.97276 170.419851,174.97995 18.00298,4.93624 29.32413,6.66481 51.38001,7.84494 14.83437,0.79374 33.79769,0.38194 43.98337,-0.95513 45.16877,-5.92926 87.77784,-23.75565 121.79432,-50.95515 13.59979,-10.87437 23.95516,-21.11837 35.9126,-35.52638 2.90265,-3.49752 5.40531,-6.23136 5.56146,-6.07521 0.15614,0.15615 -1.6486,4.39402 -4.01054,9.41749 -29.60896,62.97339 -79.28674,109.91642 -142.91835,135.05073 -35.03206,13.83758 -71.99463,19.84944 -108.11971,17.58541 z"
     id="path396"
     transform="scale(0.75)" />
</svg>
